<svg width="176px" height="128px" viewBox="0 0 175.82767784118641 127.85337314605715" xmlns="http://www.w3.org/2000/svg" xmlns:xlink="http://www.w3.org/1999/xlink">
    <g id="16205c14-bfa5-4794-9c8d-196366b4d414">
<g style="">
		<g id="16205c14-bfa5-4794-9c8d-196366b4d414-child-0">
<path style="stroke: rgb(193,193,193); stroke-width: 0; stroke-dasharray: none; stroke-linecap: butt; stroke-dashoffset: 0; stroke-linejoin: miter; stroke-miterlimit: 4; fill: rgb(0,0,0); fill-rule: nonzero; opacity: 1;" transform="matrix(0.320002 0 0 0.319996 87.913709 63.926748) matrix(1 0 0 1 0 0)  translate(-275.745503, -201.406417)" d="M 123.95 395.03 C 86.53 382.39 53.73 366.59 19.50 344.71 C 1.32 333.09 3.31 336.46 1.92 315.00 C -4.17 221.39 20.56 131.83 75.50 48.48 L 84.84 34.30 L 100.17 28.26 C 127.47 17.49 156.79 8.93 184.92 3.52 C 195.63 1.46 198.51 1.19 199.18 2.22 C 199.64 2.92 202.99 9.29 206.61 16.38 L 213.20 29.25 L 218.74 28.60 C 221.79 28.24 228.83 27.42 234.39 26.76 C 247.47 25.23 304.33 25.24 317.61 26.78 C 323.17 27.42 330.22 28.24 333.28 28.60 L 338.86 29.26 L 345.38 16.38 C 348.97 9.30 352.30 2.92 352.78 2.22 C 353.48 1.19 356.35 1.45 367.08 3.52 C 395.48 8.98 422.46 16.86 450.29 27.82 L 467.07 34.42 L 476.42 48.46 C 517.04 109.46 540.38 172.34 548.65 243.00 C 550.54 259.18 551.11 304.72 549.65 323.29 L 548.80 334.07 L 536.15 342.41 C 502.63 364.51 466.41 382.11 427.64 395.15 L 409.72 401.18 L 407.38 398.34 C 398.87 388.02 379.08 355.65 380.71 354.71 C 381.14 354.46 385.77 352.56 391.00 350.49 C 400.59 346.70 426.00 334.38 426.00 333.53 C 426.00 333.27 423.59 331.24 420.64 329.02 L 415.28 324.97 L 404.31 329.37 C 321.75 362.56 233.36 362.92 150.62 330.41 L 136.74 324.96 L 131.25 329.10 C 127.07 332.26 126.09 333.46 127.13 334.16 C 130.84 336.68 152.61 347.17 161.00 350.49 C 166.23 352.56 170.86 354.46 171.29 354.71 C 172.80 355.58 160.57 376.01 148.23 393.25 C 145.18 397.51 142.41 400.99 142.09 400.98 C 141.77 400.97 133.60 398.29 123.95 395.03 Z M 194.27 272.53 C 217.32 267.65 234.00 245.66 234.00 220.16 C 234.00 201.41 222.94 182.12 207.41 173.78 C 178.62 158.33 143.58 175.98 136.51 209.50 C 134.66 218.28 134.65 223.68 136.47 232.29 C 140.87 253.03 156.43 268.85 176.50 272.96 C 182.58 274.21 186.84 274.10 194.27 272.53 Z M 374.98 272.93 C 394.50 269.77 411.12 253.11 415.53 232.29 C 422.25 200.57 401.16 170.59 370.50 168.28 C 353.52 167.00 337.39 175.12 327.59 189.88 C 312.83 212.09 315.44 240.37 333.98 259.09 C 341.08 266.26 349.85 271.17 358.51 272.82 C 365.36 274.13 367.51 274.15 374.98 272.93 Z" stroke-linecap="round"/>
</g>
</g>
</g>

  </svg>