<svg width="448px" height="511px" viewBox="0 0 448.02850341796875 511" xmlns="http://www.w3.org/2000/svg" xmlns:xlink="http://www.w3.org/1999/xlink">
    <g id="5f09479f-1f92-4005-85ea-abcd706e5ca3">
<g style="">
		<g id="5f09479f-1f92-4005-85ea-abcd706e5ca3-child-0">
<path style="stroke: rgb(193,193,193); stroke-width: 0; stroke-dasharray: none; stroke-linecap: butt; stroke-dashoffset: 0; stroke-linejoin: miter; stroke-miterlimit: 4; fill: rgb(0,0,0); fill-rule: nonzero; opacity: 1;" transform="matrix(0.999997 0 0 1 224.014328 255.5) matrix(1 0 0 1 0 0)  translate(-225.015, -255.5)" d="M 1.25 370.25 L 1.50 229.50 L 225.25 229.25 L 449.00 229.00 L 449.00 370.00 C 449.00 447.55 448.75 511.00 448.43 511.00 C 447.50 511.00 447.48 510.98 334.60 447.71 C 235.78 392.32 225.46 386.77 223.10 387.68 C 221.67 388.23 171.49 416.21 111.58 449.84 C 51.67 483.48 2.28 511.00 1.83 511.00 C 1.37 511.00 1.11 447.66 1.25 370.25 Z M 2.75 177.31 C 1.13 176.89 1.00 174.54 1.00 145.93 L 1.00 115.00 L 225.01 115.00 L 449.03 115.00 L 448.76 146.25 L 448.50 177.50 L 226.50 177.64 C 104.40 177.71 3.71 177.56 2.75 177.31 Z M 1.00 31.50 L 1.00 0.00 L 225.00 0.00 L 449.00 0.00 L 449.00 31.50 L 449.00 63.00 L 225.00 63.00 L 1.00 63.00 L 1.00 31.50 Z" stroke-linecap="round"/>
</g>
</g>
</g>

  </svg>