<svg width="256px" height="181px" viewBox="0 0 256.0219842910765 180.83876953125002" xmlns="http://www.w3.org/2000/svg" xmlns:xlink="http://www.w3.org/1999/xlink">
    <g id="ae0acbc1-8326-431f-ad82-4c30ba8824b5">
<g style="">
		<g id="ae0acbc1-8326-431f-ad82-4c30ba8824b5-child-0">
<path style="stroke: rgb(193,193,193); stroke-width: 0; stroke-dasharray: none; stroke-linecap: butt; stroke-dashoffset: 0; stroke-linejoin: miter; stroke-miterlimit: 4; fill: rgb(0,0,0); fill-rule: nonzero; opacity: 1;" transform="matrix(0.320001 0 0 0.319999 128.0108 90.419332) matrix(1 0 0 1 0 0)  translate(-399.9275, -400.061296)" d="M 146.45 681.93 C 98.25 676.23 53.55 648.25 26.76 607.00 C 13.20 586.12 4.80 563.23 1.44 538.02 C -0.62 522.52 -0.62 277.48 1.44 261.98 C 4.80 236.77 13.20 213.88 26.76 193.00 C 51.54 154.84 89.24 129.38 135.00 119.89 L 146.50 117.50 L 400.00 117.50 L 653.50 117.50 L 665.00 119.89 C 729.96 133.36 778.85 179.74 795.08 243.30 C 799.90 262.18 799.96 264.23 799.96 400.00 C 799.96 503.65 799.70 529.47 798.56 538.02 C 792.20 585.79 765.91 628.31 726.50 654.56 C 708.12 666.80 689.73 674.61 667.00 679.82 L 655.50 682.46 L 404.50 682.61 C 266.45 682.69 150.33 682.38 146.45 681.93 Z M 412.50 463.36 C 473.00 434.55 523.29 410.03 524.25 408.88 C 526.93 405.66 526.56 399.58 523.53 397.20 C 518.69 393.40 301.28 284.00 298.56 284.00 C 296.89 284.00 294.72 285.13 292.92 286.92 L 290.00 289.85 L 290.00 399.38 C 290.00 483.71 290.28 509.52 291.23 511.60 C 292.63 514.67 297.54 517.18 300.50 516.33 C 301.60 516.01 352.00 492.18 412.50 463.36 Z" stroke-linecap="round"/>
</g>
</g>
</g>

  </svg>